<svg width="720" height="333" viewBox="0 0 720 333" fill="none" xmlns="http://www.w3.org/2000/svg">
<rect x="167.495" y="124.004" width="82.8842" height="82.8842" rx="18" fill="url(#paint0_linear_3_135)" fill-opacity="0.4"/>
<g clip-path="url(#clip0_3_135)">
<path d="M226.74 156.682C226.167 156.483 225.573 156.294 224.962 156.116C225.062 155.702 225.154 155.292 225.236 154.89C226.583 148.285 225.703 142.964 222.696 141.213C219.814 139.533 215.1 141.284 210.338 145.471C209.88 145.874 209.421 146.3 208.962 146.747C208.657 146.451 208.351 146.166 208.047 145.893C203.057 141.415 198.055 139.529 195.052 141.286C192.172 142.97 191.319 147.972 192.532 154.232C192.649 154.836 192.785 155.454 192.94 156.082C192.232 156.285 191.549 156.501 190.895 156.731C185.045 158.792 181.309 162.023 181.309 165.373C181.309 168.834 185.32 172.305 191.413 174.409C191.894 174.575 192.393 174.732 192.907 174.881C192.74 175.56 192.595 176.226 192.473 176.875C191.317 183.025 192.22 187.909 195.092 189.583C198.059 191.312 203.038 189.535 207.886 185.253C208.269 184.914 208.654 184.555 209.039 184.179C209.538 184.665 210.037 185.125 210.533 185.556C215.229 189.64 219.867 191.289 222.736 189.61C225.7 187.876 226.663 182.63 225.413 176.246C225.317 175.759 225.206 175.261 225.081 174.754C225.431 174.649 225.774 174.542 226.109 174.429C232.443 172.309 236.565 168.88 236.565 165.373C236.565 162.011 232.708 158.759 226.74 156.682ZM225.367 172.165C225.064 172.266 224.754 172.364 224.438 172.459C223.739 170.222 222.795 167.843 221.64 165.385C222.742 162.986 223.65 160.637 224.33 158.414C224.895 158.58 225.443 158.754 225.972 158.938C231.085 160.717 234.204 163.347 234.204 165.373C234.204 167.532 230.836 170.334 225.367 172.165ZM223.097 176.71C223.65 179.532 223.729 182.084 223.363 184.079C223.034 185.872 222.372 187.067 221.553 187.546C219.812 188.564 216.088 187.24 212.072 183.748C211.612 183.347 211.148 182.92 210.683 182.467C212.24 180.747 213.796 178.746 215.314 176.525C217.986 176.285 220.509 175.893 222.798 175.359C222.911 175.818 223.011 176.269 223.097 176.71ZM200.147 187.37C198.446 187.977 197.09 187.994 196.271 187.517C194.528 186.501 193.804 182.58 194.792 177.319C194.905 176.717 195.04 176.098 195.195 175.466C197.459 175.972 199.964 176.335 202.642 176.555C204.171 178.729 205.772 180.727 207.385 182.477C207.033 182.821 206.682 183.148 206.332 183.457C204.189 185.35 202.04 186.694 200.147 187.37ZM192.176 172.152C189.482 171.221 187.257 170.012 185.732 168.692C184.361 167.506 183.669 166.329 183.669 165.373C183.669 163.34 186.669 160.747 191.672 158.984C192.279 158.77 192.915 158.568 193.574 158.379C194.265 160.652 195.172 163.028 196.267 165.431C195.158 167.87 194.238 170.284 193.54 172.584C193.07 172.447 192.615 172.303 192.176 172.152ZM194.848 153.774C193.81 148.411 194.499 144.365 196.235 143.35C198.083 142.269 202.171 143.811 206.479 147.676C206.755 147.923 207.031 148.182 207.309 148.45C205.703 150.192 204.117 152.175 202.601 154.336C200.003 154.579 197.515 154.97 195.228 155.494C195.084 154.909 194.957 154.335 194.848 153.774ZM218.683 159.721C218.136 158.767 217.575 157.835 217.003 156.929C218.766 157.154 220.455 157.453 222.041 157.819C221.565 159.361 220.971 160.974 220.273 162.627C219.771 161.665 219.241 160.696 218.683 159.721ZM208.963 150.154C210.052 151.346 211.142 152.677 212.215 154.121C211.134 154.07 210.04 154.043 208.937 154.043C207.844 154.043 206.758 154.069 205.684 154.12C206.758 152.689 207.857 151.36 208.963 150.154ZM199.181 159.738C198.635 160.695 198.115 161.659 197.621 162.625C196.934 160.978 196.346 159.358 195.865 157.793C197.442 157.437 199.123 157.145 200.875 156.925C200.295 157.839 199.729 158.778 199.181 159.737V159.738ZM200.925 173.992C199.116 173.788 197.409 173.511 195.833 173.165C196.321 171.573 196.922 169.918 197.624 168.235C198.119 169.201 198.641 170.165 199.19 171.124H199.191C199.75 172.102 200.33 173.059 200.925 173.992ZM209.029 180.76C207.91 179.54 206.794 178.191 205.704 176.74C206.762 176.782 207.841 176.803 208.937 176.803C210.063 176.803 211.177 176.777 212.272 176.728C211.196 178.206 210.11 179.557 209.029 180.76ZM220.295 168.149C221.034 169.851 221.656 171.496 222.151 173.061C220.549 173.431 218.819 173.728 216.996 173.949C217.57 173.031 218.136 172.083 218.693 171.108C219.255 170.122 219.79 169.134 220.295 168.149ZM216.648 169.916C215.784 171.43 214.897 172.874 213.997 174.238C212.357 174.357 210.663 174.418 208.937 174.418C207.217 174.418 205.545 174.364 203.934 174.258C202.997 172.876 202.091 171.427 201.233 169.929H201.233C200.377 168.435 199.59 166.929 198.876 165.43C199.589 163.929 200.375 162.42 201.226 160.929L201.226 160.929C202.079 159.434 202.977 157.992 203.905 156.619C205.549 156.494 207.234 156.428 208.937 156.428H208.937C210.648 156.428 212.335 156.494 213.978 156.621C214.891 157.984 215.783 159.421 216.64 160.916C217.506 162.429 218.302 163.927 219.022 165.397C218.305 166.891 217.51 168.405 216.648 169.916ZM221.517 143.279C223.368 144.357 224.087 148.706 222.925 154.409C222.85 154.773 222.767 155.143 222.676 155.519C220.384 154.984 217.894 154.586 215.288 154.339C213.77 152.154 212.196 150.168 210.617 148.448C211.042 148.036 211.466 147.642 211.888 147.271C215.967 143.683 219.78 142.267 221.517 143.279ZM208.937 160.387C211.662 160.387 213.871 162.619 213.871 165.373C213.871 168.127 211.662 170.359 208.937 170.359C206.212 170.359 204.003 168.127 204.003 165.373C204.003 162.619 206.212 160.387 208.937 160.387Z" fill="white"/>
</g>
<rect x="250.379" y="238.972" width="65.0596" height="65.0596" rx="18" fill="url(#paint1_linear_3_135)" fill-opacity="0.4"/>
<g clip-path="url(#clip1_3_135)">
<path d="M295.119 254.123H302.961L283.354 288.849L263.747 254.123H271.492H278.747L283.354 262.175L287.864 254.123H295.119Z" fill="white"/>
<path d="M263.747 254.123L283.354 288.849L302.961 254.123H295.119L283.354 274.959L271.492 254.123H263.747Z" fill="white"/>
<path d="M271.492 254.123L283.354 275.059L295.119 254.123H287.864L283.354 262.175L278.747 254.123H271.492Z" fill="#35495E" fill-opacity="0.2"/>
</g>
<rect x="106" y="238.972" width="49.9088" height="49.9088" rx="18" fill="url(#paint2_linear_3_135)" fill-opacity="0.4"/>
<g clip-path="url(#clip2_3_135)">
<path d="M142.618 252.898C139.635 248.757 133.742 247.53 129.481 250.162L121.998 254.787C119.954 256.034 118.546 258.058 118.12 260.363C117.763 262.283 118.077 264.263 119.011 265.991C118.371 266.933 117.934 267.992 117.727 269.102C117.297 271.451 117.86 273.87 119.29 275.811C122.274 279.953 128.167 281.18 132.427 278.547L139.91 273.923C141.954 272.676 143.362 270.652 143.789 268.347C144.146 266.427 143.832 264.446 142.898 262.718C143.538 261.776 143.975 260.718 144.181 259.607C144.612 257.258 144.049 254.839 142.619 252.898" fill="white" fill-opacity="0.4"/>
<path d="M128.75 276.205C126.337 276.813 123.789 275.898 122.368 273.911C121.507 272.744 121.169 271.289 121.428 269.876C121.471 269.646 121.531 269.419 121.606 269.198L121.747 268.781L122.131 269.054C123.017 269.685 124.007 270.165 125.059 270.473L125.337 270.555L125.312 270.824C125.278 271.207 125.385 271.589 125.613 271.903C126.041 272.501 126.808 272.777 127.535 272.595C127.698 272.552 127.853 272.486 127.995 272.399L135.48 267.773C135.85 267.547 136.106 267.18 136.183 266.763C136.261 266.337 136.159 265.898 135.9 265.546C135.472 264.948 134.705 264.672 133.978 264.854C133.815 264.896 133.66 264.962 133.519 265.05L130.662 266.816C130.193 267.105 129.68 267.324 129.142 267.463C126.73 268.071 124.182 267.155 122.761 265.169C121.9 264.001 121.561 262.547 121.82 261.133C122.077 259.747 122.924 258.53 124.154 257.78L131.638 253.154C132.108 252.864 132.621 252.645 133.159 252.506C135.572 251.898 138.12 252.813 139.541 254.8C140.401 255.967 140.74 257.422 140.481 258.835C140.437 259.065 140.378 259.291 140.302 259.513L140.161 259.93L139.778 259.657C138.892 259.026 137.902 258.546 136.85 258.238L136.571 258.156L136.597 257.887C136.631 257.504 136.524 257.122 136.295 256.808C135.868 256.209 135.1 255.933 134.374 256.116C134.211 256.158 134.056 256.224 133.914 256.312L126.429 260.938C126.058 261.164 125.803 261.531 125.726 261.948C125.648 262.374 125.75 262.812 126.009 263.165C126.437 263.763 127.204 264.039 127.931 263.857C128.094 263.814 128.249 263.748 128.391 263.661L131.247 261.896C131.716 261.606 132.229 261.387 132.766 261.248C135.179 260.64 137.727 261.555 139.148 263.542C140.008 264.709 140.347 266.164 140.088 267.577C139.832 268.964 138.985 270.181 137.755 270.932L130.27 275.557C129.8 275.847 129.288 276.066 128.749 276.205" fill="white"/>
</g>
<rect x="121.151" y="29.5333" width="62.386" height="62.386" rx="18" fill="url(#paint3_linear_3_135)" fill-opacity="0.4"/>
<path d="M146.941 79.4395C144.759 78.4926 142.718 76.0856 142.713 73.6227C142.707 70.9376 144.402 68.6579 146.509 67.1597C146.256 68.121 146.118 69.0002 146.745 69.86C147.329 70.6595 148.351 71.048 149.316 70.8371C151.571 70.3415 151.674 67.8521 150.338 66.4019C149.016 64.9657 147.737 63.3434 148.24 61.2605C148.492 60.2165 149.131 59.2386 149.939 58.5396C149.318 60.18 151.084 61.7979 152.248 62.6037C154.267 64.0018 156.482 65.0584 158.339 66.6973C160.291 68.4197 161.733 70.7489 161.442 73.4499C161.126 76.3777 158.81 78.414 156.211 79.4421C161.702 78.2249 167.377 73.9451 167.493 67.8292C167.589 62.7979 164.152 58.9259 159.894 56.709L159.672 56.5871C159.789 56.8718 159.827 57.1141 159.822 57.3309C159.861 57.171 159.886 57.0066 159.894 56.8371C159.892 57.048 159.865 57.247 159.816 57.4339L159.822 57.3309C159.758 57.6023 159.651 57.8545 159.507 58.0853L159.57 58.0178C158.72 59.4325 156.421 59.7398 155.285 58.2748C153.458 55.9183 155.323 53.3776 155.584 50.8822C155.91 47.7547 153.957 44.7187 151.535 42.9017C152.869 45.0684 151.112 47.9349 149.706 49.5372C148.343 51.0909 146.685 52.3878 145.18 53.7993C143.563 55.3152 142.009 56.9121 140.681 58.6913C138.023 62.2525 136.396 66.7313 137.592 71.1743C138.787 75.614 142.616 78.4402 146.941 79.4395Z" fill="white"/>
<g filter="url(#filter0_f_3_135)">
<rect x="26" y="100" width="48" height="48" rx="18" fill="url(#paint4_linear_3_135)" fill-opacity="0.4"/>
</g>
<rect x="655" y="15" width="65" height="65" rx="18" fill="url(#paint5_linear_3_135)" fill-opacity="0.4"/>
<g filter="url(#filter1_f_3_135)">
<rect x="631" y="216" width="46" height="46" rx="18" fill="url(#paint6_linear_3_135)" fill-opacity="0.4"/>
</g>
<g filter="url(#filter2_f_3_135)">
<rect x="706" y="288" width="37" height="37" rx="18" fill="url(#paint7_linear_3_135)" fill-opacity="0.4"/>
</g>
<g filter="url(#filter3_f_3_135)">
<rect x="486" y="8" width="28" height="28" rx="14" fill="url(#paint8_linear_3_135)" fill-opacity="0.4"/>
</g>
<g filter="url(#filter4_f_3_135)">
<rect x="681" y="137" width="22" height="22" rx="11" fill="url(#paint9_linear_3_135)" fill-opacity="0.4"/>
</g>
<g filter="url(#filter5_f_3_135)">
<rect x="-12" y="216" width="46" height="46" rx="18" fill="url(#paint10_linear_3_135)" fill-opacity="0.4"/>
</g>
<rect x="521.312" y="248.775" width="49.0175" height="49.0175" rx="18" fill="url(#paint11_linear_3_135)" fill-opacity="0.4"/>
<path d="M546.267 282.481V287.989C555.604 287.989 562.874 278.969 559.819 269.185C558.484 264.909 555.087 261.512 550.811 260.177C541.027 257.123 532.007 264.393 532.007 273.73H537.528C537.529 273.73 537.53 273.729 537.53 273.729C537.531 267.869 543.33 263.339 549.49 265.574C551.772 266.402 553.593 268.223 554.422 270.505C556.657 276.662 552.134 282.458 546.279 282.467V276.976C546.279 276.976 546.279 276.975 546.278 276.975H540.774C540.774 276.975 540.773 276.976 540.773 276.976V282.481H546.267ZM540.772 286.712H536.543L536.542 286.711V282.481H540.773V286.711C540.773 286.711 540.773 286.712 540.772 286.712ZM536.545 282.481H532.999C532.998 282.481 532.997 282.48 532.997 282.48V278.936C532.997 278.936 532.998 278.933 532.999 278.933H536.542C536.544 278.933 536.545 278.935 536.545 278.935V282.481Z" fill="white"/>
<rect x="307.418" y="25.9684" width="122.098" height="122.098" rx="18" fill="url(#paint12_linear_3_135)" fill-opacity="0.4"/>
<g clip-path="url(#clip3_3_135)">
<path d="M368.912 126.53C367.833 126.53 366.825 126.239 365.89 125.73L356.319 119.984C354.88 119.184 355.599 118.893 356.031 118.747C357.974 118.093 358.334 117.947 360.349 116.784C360.565 116.638 360.852 116.711 361.068 116.856L368.409 121.293C368.696 121.439 369.056 121.439 369.272 121.293L397.985 104.491C398.273 104.346 398.417 104.055 398.417 103.691V70.1603C398.417 69.7967 398.273 69.5057 397.985 69.3603L369.272 52.6312C368.984 52.4857 368.624 52.4857 368.409 52.6312L339.696 69.3603C339.408 69.5057 339.264 69.8694 339.264 70.1603V103.691C339.264 103.982 339.408 104.346 339.696 104.491L347.539 109.074C351.785 111.256 354.448 108.71 354.448 106.164V73.0697C354.448 72.6333 354.808 72.1969 355.311 72.1969H358.981C359.413 72.1969 359.845 72.5606 359.845 73.0697V106.164C359.845 111.91 356.751 115.256 351.353 115.256C349.698 115.256 348.403 115.256 344.733 113.438L337.177 109.074C335.306 107.983 334.154 105.946 334.154 103.764V70.2331C334.154 68.051 335.306 66.0144 337.177 64.9234L365.89 48.1216C367.689 47.1033 370.136 47.1033 371.935 48.1216L400.648 64.9234C402.519 66.0144 403.67 68.051 403.67 70.2331V103.764C403.67 105.946 402.519 107.983 400.648 109.074L371.935 125.875C370.999 126.312 369.92 126.53 368.912 126.53ZM377.764 103.473C365.17 103.473 362.58 97.6542 362.58 92.7082C362.58 92.2718 362.939 91.8354 363.443 91.8354H367.185C367.617 91.8354 367.977 92.1263 367.977 92.5627C368.552 96.4177 370.208 98.3088 377.836 98.3088C383.88 98.3088 386.471 96.9268 386.471 93.6538C386.471 91.7627 385.752 90.3807 376.324 89.4351C368.481 88.6351 363.587 86.8894 363.587 80.5615C363.587 74.6699 368.481 71.1786 376.684 71.1786C385.895 71.1786 390.429 74.379 391.005 81.3615C391.005 81.5798 390.933 81.798 390.789 82.0162C390.645 82.1616 390.429 82.3071 390.213 82.3071H386.471C386.111 82.3071 385.752 82.0162 385.68 81.6525C384.816 77.6521 382.585 76.3428 376.684 76.3428C370.064 76.3428 369.272 78.6703 369.272 80.416C369.272 82.5253 370.208 83.1799 379.131 84.3437C387.982 85.5074 392.156 87.1804 392.156 93.4356C392.084 99.8363 386.903 103.473 377.764 103.473Z" fill="white"/>
</g>
<rect x="368.912" y="180.151" width="91.7965" height="91.7965" rx="18" fill="url(#paint13_linear_3_135)" fill-opacity="0.4"/>
<g clip-path="url(#clip4_3_135)">
<path d="M440.182 211.432C440.201 211.5 440.211 211.571 440.211 211.643V222.719C440.211 223.008 440.056 223.275 439.806 223.419L430.55 228.771V239.38C430.55 239.669 430.397 239.935 430.148 240.081L410.827 251.252C410.782 251.277 410.734 251.293 410.686 251.31C410.668 251.316 410.651 251.327 410.632 251.332C410.496 251.368 410.354 251.368 410.219 251.332C410.197 251.326 410.177 251.314 410.156 251.306C410.112 251.29 410.066 251.276 410.023 251.252L390.706 240.081C390.456 239.937 390.302 239.669 390.302 239.38V206.152C390.302 206.079 390.312 206.009 390.33 205.94C390.336 205.917 390.35 205.896 390.358 205.872C390.373 205.83 390.387 205.787 390.409 205.747C390.424 205.721 390.446 205.7 390.465 205.675C390.488 205.643 390.509 205.61 390.536 205.582C390.559 205.558 390.589 205.541 390.615 205.521C390.645 205.497 390.671 205.471 390.704 205.451H390.705L400.364 199.866C400.613 199.722 400.919 199.722 401.168 199.866L410.828 205.451H410.83C410.862 205.472 410.889 205.497 410.918 205.52C410.944 205.54 410.973 205.558 410.996 205.581C411.025 205.61 411.045 205.643 411.069 205.675C411.086 205.7 411.109 205.721 411.123 205.747C411.146 205.788 411.159 205.83 411.175 205.872C411.183 205.896 411.197 205.917 411.203 205.941C411.222 206.01 411.231 206.081 411.232 206.152V226.906L419.281 222.251V211.642C419.281 211.571 419.291 211.499 419.309 211.432C419.316 211.407 419.329 211.386 419.337 211.363C419.353 211.321 419.367 211.277 419.389 211.238C419.404 211.211 419.426 211.19 419.444 211.166C419.468 211.134 419.488 211.1 419.516 211.072C419.539 211.049 419.568 211.032 419.594 211.012C419.624 210.987 419.651 210.961 419.683 210.942H419.684L429.344 205.356C429.593 205.212 429.899 205.212 430.148 205.356L439.807 210.942C439.842 210.962 439.868 210.987 439.898 211.011C439.923 211.031 439.952 211.049 439.975 211.071C440.003 211.1 440.024 211.134 440.048 211.166C440.066 211.19 440.088 211.211 440.102 211.238C440.125 211.277 440.138 211.321 440.154 211.363C440.163 211.386 440.176 211.407 440.182 211.432ZM438.6 222.251V213.041L435.22 214.995L430.55 217.695V226.906L438.601 222.251H438.6ZM428.941 238.913V229.696L424.348 232.331L411.231 239.849V249.153L428.941 238.913ZM391.912 207.55V238.913L409.62 249.152V239.85L400.369 234.592L400.366 234.59L400.362 234.588C400.331 234.57 400.305 234.544 400.276 234.521C400.251 234.501 400.221 234.485 400.199 234.463L400.197 234.46C400.171 234.435 400.153 234.403 400.131 234.375C400.111 234.348 400.087 234.325 400.071 234.296L400.07 234.293C400.052 234.263 400.04 234.227 400.027 234.192C400.014 234.162 399.997 234.134 399.989 234.101V234.1C399.979 234.062 399.977 234.022 399.973 233.982C399.969 233.952 399.961 233.922 399.961 233.892V233.889V212.205L395.292 209.503L391.912 207.551V207.55ZM400.767 201.499L392.719 206.152L400.765 210.805L408.812 206.151L400.765 201.499H400.767ZM404.953 230.536L409.621 227.837V207.55L406.241 209.504L401.571 212.205V232.491L404.953 230.536ZM429.746 206.99L421.699 211.643L429.746 216.295L437.792 211.642L429.746 206.99ZM428.941 217.695L424.271 214.995L420.891 213.041V222.251L425.56 224.951L428.941 226.906V217.695ZM410.424 238.451L422.228 231.684L428.128 228.302L420.087 223.652L410.829 229.006L402.39 233.884L410.424 238.451Z" fill="white"/>
</g>
<rect x="499.923" y="87.4632" width="114.077" height="114.077" rx="18" fill="url(#paint14_linear_3_135)" fill-opacity="0.4"/>
<g clip-path="url(#clip5_3_135)">
<path d="M556.961 123.112C547.455 123.112 541.513 127.853 539.137 137.335C542.702 132.594 546.861 130.816 551.614 132.001C554.326 132.678 556.264 134.64 558.41 136.812C561.905 140.351 565.95 144.446 574.786 144.446C584.292 144.446 590.234 139.705 592.611 130.224C589.046 134.964 584.887 136.742 580.133 135.557C577.421 134.881 575.483 132.919 573.337 130.746C569.842 127.208 565.797 123.112 556.961 123.112ZM539.137 144.446C529.63 144.446 523.689 149.187 521.312 158.669C524.877 153.928 529.036 152.15 533.789 153.335C536.501 154.012 538.44 155.974 540.585 158.146C544.081 161.685 548.126 165.78 556.961 165.78C566.468 165.78 572.409 161.039 574.786 151.557C571.221 156.298 567.062 158.076 562.309 156.891C559.597 156.215 557.658 154.252 555.513 152.08C552.018 148.542 547.972 144.446 539.137 144.446Z" fill="url(#paint15_linear_3_135)"/>
</g>
<defs>
<filter id="filter0_f_3_135" x="18" y="92" width="64" height="64" filterUnits="userSpaceOnUse" color-interpolation-filters="sRGB">
<feFlood flood-opacity="0" result="BackgroundImageFix"/>
<feBlend mode="normal" in="SourceGraphic" in2="BackgroundImageFix" result="shape"/>
<feGaussianBlur stdDeviation="4" result="effect1_foregroundBlur_3_135"/>
</filter>
<filter id="filter1_f_3_135" x="623" y="208" width="62" height="62" filterUnits="userSpaceOnUse" color-interpolation-filters="sRGB">
<feFlood flood-opacity="0" result="BackgroundImageFix"/>
<feBlend mode="normal" in="SourceGraphic" in2="BackgroundImageFix" result="shape"/>
<feGaussianBlur stdDeviation="4" result="effect1_foregroundBlur_3_135"/>
</filter>
<filter id="filter2_f_3_135" x="698" y="280" width="53" height="53" filterUnits="userSpaceOnUse" color-interpolation-filters="sRGB">
<feFlood flood-opacity="0" result="BackgroundImageFix"/>
<feBlend mode="normal" in="SourceGraphic" in2="BackgroundImageFix" result="shape"/>
<feGaussianBlur stdDeviation="4" result="effect1_foregroundBlur_3_135"/>
</filter>
<filter id="filter3_f_3_135" x="478" y="0" width="44" height="44" filterUnits="userSpaceOnUse" color-interpolation-filters="sRGB">
<feFlood flood-opacity="0" result="BackgroundImageFix"/>
<feBlend mode="normal" in="SourceGraphic" in2="BackgroundImageFix" result="shape"/>
<feGaussianBlur stdDeviation="4" result="effect1_foregroundBlur_3_135"/>
</filter>
<filter id="filter4_f_3_135" x="673" y="129" width="38" height="38" filterUnits="userSpaceOnUse" color-interpolation-filters="sRGB">
<feFlood flood-opacity="0" result="BackgroundImageFix"/>
<feBlend mode="normal" in="SourceGraphic" in2="BackgroundImageFix" result="shape"/>
<feGaussianBlur stdDeviation="4" result="effect1_foregroundBlur_3_135"/>
</filter>
<filter id="filter5_f_3_135" x="-20" y="208" width="62" height="62" filterUnits="userSpaceOnUse" color-interpolation-filters="sRGB">
<feFlood flood-opacity="0" result="BackgroundImageFix"/>
<feBlend mode="normal" in="SourceGraphic" in2="BackgroundImageFix" result="shape"/>
<feGaussianBlur stdDeviation="4" result="effect1_foregroundBlur_3_135"/>
</filter>
<linearGradient id="paint0_linear_3_135" x1="208.937" y1="124.004" x2="208.937" y2="206.888" gradientUnits="userSpaceOnUse">
<stop stop-color="#4F46E5"/>
<stop offset="1" stop-color="#4F46E5" stop-opacity="0"/>
</linearGradient>
<linearGradient id="paint1_linear_3_135" x1="282.909" y1="238.972" x2="282.909" y2="304.032" gradientUnits="userSpaceOnUse">
<stop stop-color="#4F46E5"/>
<stop offset="1" stop-color="#4F46E5" stop-opacity="0"/>
</linearGradient>
<linearGradient id="paint2_linear_3_135" x1="130.954" y1="238.972" x2="130.954" y2="288.881" gradientUnits="userSpaceOnUse">
<stop stop-color="#4F46E5"/>
<stop offset="1" stop-color="#4F46E5" stop-opacity="0"/>
</linearGradient>
<linearGradient id="paint3_linear_3_135" x1="152.344" y1="29.5333" x2="152.344" y2="91.9193" gradientUnits="userSpaceOnUse">
<stop stop-color="#4F46E5"/>
<stop offset="1" stop-color="#4F46E5" stop-opacity="0"/>
</linearGradient>
<linearGradient id="paint4_linear_3_135" x1="50" y1="100" x2="50" y2="148" gradientUnits="userSpaceOnUse">
<stop stop-color="#6B63EB"/>
<stop offset="1" stop-color="#4F46E5" stop-opacity="0"/>
</linearGradient>
<linearGradient id="paint5_linear_3_135" x1="687.5" y1="15" x2="687.5" y2="80" gradientUnits="userSpaceOnUse">
<stop stop-color="#4F46E5"/>
<stop offset="1" stop-color="#4F46E5" stop-opacity="0"/>
</linearGradient>
<linearGradient id="paint6_linear_3_135" x1="654" y1="216" x2="654" y2="262" gradientUnits="userSpaceOnUse">
<stop stop-color="#6B63EB"/>
<stop offset="1" stop-color="#4F46E5" stop-opacity="0"/>
</linearGradient>
<linearGradient id="paint7_linear_3_135" x1="724.5" y1="288" x2="724.5" y2="325" gradientUnits="userSpaceOnUse">
<stop stop-color="#6B63EB"/>
<stop offset="1" stop-color="#4F46E5" stop-opacity="0"/>
</linearGradient>
<linearGradient id="paint8_linear_3_135" x1="500" y1="8" x2="500" y2="36" gradientUnits="userSpaceOnUse">
<stop stop-color="#6B63EB"/>
<stop offset="1" stop-color="#4F46E5" stop-opacity="0"/>
</linearGradient>
<linearGradient id="paint9_linear_3_135" x1="692" y1="137" x2="692" y2="159" gradientUnits="userSpaceOnUse">
<stop stop-color="#6B63EB"/>
<stop offset="1" stop-color="#4F46E5" stop-opacity="0"/>
</linearGradient>
<linearGradient id="paint10_linear_3_135" x1="11" y1="216" x2="11" y2="262" gradientUnits="userSpaceOnUse">
<stop stop-color="#6B63EB"/>
<stop offset="1" stop-color="#4F46E5" stop-opacity="0"/>
</linearGradient>
<linearGradient id="paint11_linear_3_135" x1="545.821" y1="248.775" x2="545.821" y2="297.793" gradientUnits="userSpaceOnUse">
<stop stop-color="#4F46E5"/>
<stop offset="1" stop-color="#4F46E5" stop-opacity="0"/>
</linearGradient>
<linearGradient id="paint12_linear_3_135" x1="368.467" y1="25.9684" x2="368.467" y2="148.067" gradientUnits="userSpaceOnUse">
<stop stop-color="#4F46E5"/>
<stop offset="1" stop-color="#4F46E5" stop-opacity="0"/>
</linearGradient>
<linearGradient id="paint13_linear_3_135" x1="414.811" y1="180.151" x2="414.811" y2="271.947" gradientUnits="userSpaceOnUse">
<stop stop-color="#4F46E5"/>
<stop offset="1" stop-color="#4F46E5" stop-opacity="0"/>
</linearGradient>
<linearGradient id="paint14_linear_3_135" x1="556.961" y1="87.4632" x2="556.961" y2="201.54" gradientUnits="userSpaceOnUse">
<stop stop-color="#4F46E5"/>
<stop offset="1" stop-color="#4F46E5" stop-opacity="0"/>
</linearGradient>
<linearGradient id="paint15_linear_3_135" x1="519.332" y1="136.766" x2="580.829" y2="172.316" gradientUnits="userSpaceOnUse">
<stop stop-color="white"/>
<stop offset="1" stop-color="white" stop-opacity="0.5"/>
</linearGradient>
<clipPath id="clip0_3_135">
<rect width="55.2561" height="49.7305" fill="white" transform="translate(181.309 140.58)"/>
</clipPath>
<clipPath id="clip1_3_135">
<rect width="39.214" height="34.7579" fill="white" transform="translate(263.747 254.123)"/>
</clipPath>
<clipPath id="clip2_3_135">
<rect width="26.7368" height="31.193" fill="white" transform="translate(117.586 248.775)"/>
</clipPath>
<clipPath id="clip3_3_135">
<rect width="69.5158" height="79.3193" fill="white" transform="translate(334.154 47.3579)"/>
</clipPath>
<clipPath id="clip4_3_135">
<rect width="49.9088" height="51.6912" fill="white" transform="translate(390.302 199.758)"/>
</clipPath>
<clipPath id="clip5_3_135">
<rect width="71.2982" height="42.7789" fill="white" transform="translate(521.312 123.112)"/>
</clipPath>
</defs>
</svg>
